# xmcd
#
# Track frame offsets:
#	150
#	25392
#	61000
#	88010
#	121613
#	144123
#	179843
#	206298
#
# Disc length: 3069 seconds
#
# Revision: 0
# Processed by: cddbd v1.5.2PL0 Copyright (c) Steve Scherf et al.
# Submitted via: dBpowerAMP V4.0
#
DISCID=620bfb08
DTITLE=Velveetatones - Behind The Cheddar Curtain
DYEAR=2004
DGENRE=Blues
TTITLE0=Smokin
TTITLE1=You're The One
TTITLE2=Help Me
TTITLE3=Sweet Man
TTITLE4=Honey Boy
TTITLE5=Who's Loving You Tonight
TTITLE6=Half As Old
TTITLE7=Baby Doll Boogie
EXTD=
EXTT0=
EXTT1=
EXTT2=
EXTT3=
EXTT4=
EXTT5=
EXTT6=
EXTT7=
PLAYORDER=
